<svg xmlns="http://www.w3.org/2000/svg" xmlns:xlink="http://www.w3.org/1999/xlink" width="237.367" height="93.362" viewBox="0 0 237.367 93.362"><defs><clipPath id="a"><rect width="237.367" height="93.362" fill="none"/></clipPath></defs><g clip-path="url(#a)"><path d="M101.084,96.987a5,5,0,0,1,2.082.4,2.86,2.86,0,0,1,1.3,1.052h.021v-.728a.49.49,0,0,1,.223-.445,1.028,1.028,0,0,1,1.042,0,.49.49,0,0,1,.223.445v9.671a4.234,4.234,0,0,1-1.254,3.409,5.121,5.121,0,0,1-3.42,1.063,7.2,7.2,0,0,1-1.922-.233,5.786,5.786,0,0,1-1.5-.637.6.6,0,0,1-.319-.435.624.624,0,0,1,.128-.5.615.615,0,0,1,.892-.243,5.287,5.287,0,0,0,1.233.556,4.883,4.883,0,0,0,1.466.213,3.406,3.406,0,0,0,2.348-.749,3.137,3.137,0,0,0,.839-2.448v-1.6h-.043a2.977,2.977,0,0,1-1.349,1.326,4.61,4.61,0,0,1-2.135.475,4.191,4.191,0,0,1-3.3-1.254,5.38,5.38,0,0,1-1.115-3.682v-.728a5.01,5.01,0,0,1,1.242-3.7,4.514,4.514,0,0,1,3.325-1.234m.127,1.275a3.06,3.06,0,0,0-2.337.9,4.037,4.037,0,0,0-.85,2.843v.567q0,3.744,3.144,3.743a3.564,3.564,0,0,0,1.222-.212,3.355,3.355,0,0,0,1.051-.617,2.986,2.986,0,0,0,.744-.982,2.941,2.941,0,0,0,.277-1.284V100.73a2.041,2.041,0,0,0-.224-.931,2.387,2.387,0,0,0-.647-.789,3.3,3.3,0,0,0-1.02-.546,4.21,4.21,0,0,0-1.36-.2" transform="translate(-18.406 -18.496)" fill="#1a1311"/><path d="M135.949,97.987a5.048,5.048,0,0,1,3.632,1.275A4.929,4.929,0,0,1,140.92,103v.85a4.928,4.928,0,0,1-1.339,3.743,5.048,5.048,0,0,1-3.632,1.275,5.109,5.109,0,0,1-3.655-1.264,4.929,4.929,0,0,1-1.338-3.754V103a4.929,4.929,0,0,1,1.338-3.754,5.109,5.109,0,0,1,3.655-1.264m0,1.295a3.444,3.444,0,0,0-2.56.91,3.979,3.979,0,0,0-.9,2.893v.688a3.978,3.978,0,0,0,.9,2.893,4.024,4.024,0,0,0,5.1,0,3.982,3.982,0,0,0,.9-2.893v-.688a3.983,3.983,0,0,0-.9-2.893,3.416,3.416,0,0,0-2.539-.91" transform="translate(-24.974 -18.687)" fill="#1a1311"/><path d="M168.89,92.737a1.007,1.007,0,0,1,.531.142.5.5,0,0,1,.234.465v13.839a.5.5,0,0,1-.234.465,1.066,1.066,0,0,1-1.062,0,.5.5,0,0,1-.233-.465V93.344a.5.5,0,0,1,.233-.465,1.007,1.007,0,0,1,.531-.142" transform="translate(-32.062 -17.685)" fill="#1a1311"/><path d="M199.155,92.687a4.088,4.088,0,0,1,1.36.2.543.543,0,0,1,.425.708.528.528,0,0,1-.68.465,2.662,2.662,0,0,0-.489-.1c-.142-.013-.312-.02-.51-.02a1.713,1.713,0,0,0-1.37.486,2.235,2.235,0,0,0-.414,1.477V97.2h2.676a.469.469,0,0,1,.4.172.675.675,0,0,1,.128.414.708.708,0,0,1-.128.435.469.469,0,0,1-.4.172h-2.676v8.781a.5.5,0,0,1-.233.465,1.067,1.067,0,0,1-1.063,0,.5.5,0,0,1-.234-.465V98.393H194.46a.468.468,0,0,1-.4-.172.708.708,0,0,1-.128-.435.675.675,0,0,1,.128-.414.468.468,0,0,1,.4-.172h1.487V95.863q0-3.176,3.208-3.176" transform="translate(-36.983 -17.676)" fill="#1a1311"/><path d="M63.724,0h-2.4A19.949,19.949,0,0,0,56.3.856a18.221,18.221,0,0,0-5.363,2.386c-3.888,2.622-7.161,7.016-9.728,13.064L25.534,53.784,12.367,20.772a3.16,3.16,0,0,1-.292-1.139,2.466,2.466,0,0,1,.106-.77,2.111,2.111,0,0,1,2.209-1.544h.583a.4.4,0,0,0,.4-.4v-.647a.4.4,0,0,0-.4-.4H.4a.4.4,0,0,0-.4.4v.647a.4.4,0,0,0,.4.4H.922a5.58,5.58,0,0,1,2.989.94,6.307,6.307,0,0,1,2.338,2.9l18.194,41.5a.4.4,0,0,0,.371.242H25.4a.4.4,0,0,0,.4-.4c0-.609.409-2.232,2.359-6.5l18-39.363c.769-1.667,1.452-3.053,2.027-4.121a40.631,40.631,0,0,1,2.468-3.877,17.871,17.871,0,0,1,3.258-3.609,17.391,17.391,0,0,1,9.83-3.568.4.4,0,0,0,.388-.4V.4a.4.4,0,0,0-.4-.4" fill="#1a1311"/><path d="M164.222,24.88H152.391a.368.368,0,0,0-.368.368v.588a.368.368,0,0,0,.368.367h.53a1.843,1.843,0,0,1,1.564.652,2.141,2.141,0,0,1,.541,1.246,4.012,4.012,0,0,1-.208,1.242l-12.484,30.01-11.97-30.01A3.238,3.238,0,0,1,130.1,28.1a2.135,2.135,0,0,1,.54-1.246A1.844,1.844,0,0,1,132.2,26.2h.53a.367.367,0,0,0,.367-.367v-.588a.367.367,0,0,0-.367-.368H119.487a.368.368,0,0,0-.368.368v.588a.368.368,0,0,0,.368.367h.47a5.07,5.07,0,0,1,2.717.855,5.731,5.731,0,0,1,2.126,2.633l16.541,37.731a.368.368,0,0,0,.337.22h.529a.367.367,0,0,0,.368-.368c0-.554.372-2.03,2.145-5.913l14.186-31.725a5.833,5.833,0,0,1,2.1-2.579,4.925,4.925,0,0,1,2.684-.854h.529a.368.368,0,0,0,.368-.367v-.588a.368.368,0,0,0-.368-.368" transform="translate(-22.716 -4.745)" fill="#1a1311"/><path d="M235.3,24.88H224.409a.368.368,0,0,0-.368.368v.588a.368.368,0,0,0,.368.367h.942a2.755,2.755,0,0,1,1.931.7,2.413,2.413,0,0,1,.82,1.758v23.25a13.258,13.258,0,0,1-3.487,9.546,12.09,12.09,0,0,1-9.094,3.625,11.31,11.31,0,0,1-8.934-3.818c-2.225-2.547-3.353-5.951-3.353-10.117V28.679a2.428,2.428,0,0,1,.82-1.775,2.76,2.76,0,0,1,1.933-.7h.942a.367.367,0,0,0,.367-.367v-.588a.367.367,0,0,0-.367-.368H194.978a.368.368,0,0,0-.368.368v.588a.368.368,0,0,0,.368.367h.942a3.157,3.157,0,0,1,1.415.309,2.384,2.384,0,0,1,1.337,2.266V51.971a14.892,14.892,0,0,0,4.619,11.364c3.058,2.858,7.093,4.308,11.994,4.308s8.89-1.461,11.853-4.343a15.242,15.242,0,0,0,4.467-11.388V28.621a2.32,2.32,0,0,1,.845-1.712,2.787,2.787,0,0,1,1.907-.7h.942a.368.368,0,0,0,.368-.367v-.588a.368.368,0,0,0-.368-.368" transform="translate(-37.113 -4.745)" fill="#1a1311"/><path d="M285.073,48.623l-11.6-10.713A6.5,6.5,0,0,1,271.241,33a6.409,6.409,0,0,1,1.92-4.741,6.561,6.561,0,0,1,4.775-1.9,6.94,6.94,0,0,1,4.674,1.559A5.14,5.14,0,0,1,284.4,32.06a.367.367,0,0,0,.367.367h.529a.367.367,0,0,0,.368-.367V24.82a.368.368,0,0,0-.368-.368h-2.257a25.545,25.545,0,0,0-5.1-.588,10.277,10.277,0,0,0-7.832,3.088,10.465,10.465,0,0,0-2.9,7.4,9.746,9.746,0,0,0,3.3,7.393l11.3,10.478a6.824,6.824,0,0,1,2.177,5.233,7.06,7.06,0,0,1-2.268,5.353,8.227,8.227,0,0,1-5.84,2.137,7.11,7.11,0,0,1-5.5-2.264,8.2,8.2,0,0,1-2.082-5.727c0-.426.019-.85.057-1.262a.37.37,0,0,0-.1-.281.364.364,0,0,0-.271-.12h-.53a.368.368,0,0,0-.349.251,16.281,16.281,0,0,0-.9,5.12,18.357,18.357,0,0,0,.185,3.256.38.38,0,0,0,.095.179,10.027,10.027,0,0,0,4.671,2.541,21.4,21.4,0,0,0,5.6.808,11.16,11.16,0,0,0,8.266-3.141,10.94,10.94,0,0,0,3.108-8,9.973,9.973,0,0,0-3.062-7.687" transform="translate(-50.767 -4.551)" fill="#1a1311"/><path d="M94.039,16.815a4.359,4.359,0,1,1-4.359-4.359,4.358,4.358,0,0,1,4.359,4.359" transform="translate(-16.271 -2.375)" fill="#1a1311"/><path d="M95.873,67.3c-.011,0-.018-.012-.029-.012H94.277c-.785-.085-2.319-.732-2.319-3.227V29.447h-.647a42.646,42.646,0,0,1-7.755,1.237V31.73h2.1a2.038,2.038,0,0,1,2.067,2.163V64.1s-.062,2.926-2.516,3.191h-1.24c-.025,0-.041.019-.063.026a.194.194,0,0,0-.142.179v.814a.2.2,0,0,0,.2.2h11.88a.2.2,0,0,0,.2-.2V67.5a.2.2,0,0,0-.175-.193" transform="translate(-15.934 -5.616)" fill="#1a1311"/></g></svg>