<svg xmlns="http://www.w3.org/2000/svg" width="220.916" height="87.039" viewBox="0 0 220.916 87.039"><path d="M88.747,100.123a2.872,2.872,0,0,1,.963.142.447.447,0,0,1,.267.617q-.133.538-.615.443c-.122-.021-.255-.044-.4-.072a2.556,2.556,0,0,0-.448-.039,2.16,2.16,0,0,0-.955.206,2.042,2.042,0,0,0-.714.569,2.525,2.525,0,0,0-.44.862,3.766,3.766,0,0,0-.15,1.084v4.16a.392.392,0,0,1-.183.364.832.832,0,0,1-.829,0,.393.393,0,0,1-.184-.364v-7.4a.383.383,0,0,1,.175-.348.8.8,0,0,1,.814,0,.383.383,0,0,1,.174.348V101.8h.017a2.536,2.536,0,0,1,.34-.6,2.648,2.648,0,0,1,.54-.538,2.839,2.839,0,0,1,.722-.388,2.6,2.6,0,0,1,.905-.15" transform="translate(-20.992 -24.71)" fill="#1a1311"/><path d="M116.023,100.123a3.4,3.4,0,0,1,3.687,3.733v.032a.883.883,0,0,1-.216.664,1.075,1.075,0,0,1-.747.206h-5.3v.079a2.858,2.858,0,0,0,.707,2.12,2.727,2.727,0,0,0,2,.7,5.576,5.576,0,0,0,1.369-.15,4.545,4.545,0,0,0,1.121-.451.525.525,0,0,1,.4-.055.466.466,0,0,1,.282.245.529.529,0,0,1,.058.372.5.5,0,0,1-.24.308,5.528,5.528,0,0,1-1.32.514,6.855,6.855,0,0,1-1.736.2,3.5,3.5,0,0,1-3.82-3.923v-.664a3.9,3.9,0,0,1,1.021-2.934,3.759,3.759,0,0,1,2.732-.989m0,.965a2.517,2.517,0,0,0-1.885.7,2.717,2.717,0,0,0-.689,1.985v.079h5.1v-.127a2.713,2.713,0,0,0-.657-1.953,2.459,2.459,0,0,0-1.868-.688" transform="translate(-27.707 -24.71)" fill="#1a1311"/><path d="M147.2,100.123a3.906,3.906,0,0,1,1.628.316,2.238,2.238,0,0,1,1.013.823h.017v-.569a.383.383,0,0,1,.175-.348.8.8,0,0,1,.813,0,.383.383,0,0,1,.174.348v7.561a3.312,3.312,0,0,1-.979,2.666,4.005,4.005,0,0,1-2.674.83,5.674,5.674,0,0,1-1.5-.182,4.538,4.538,0,0,1-1.17-.5.47.47,0,0,1-.249-.34.494.494,0,0,1,.1-.388.482.482,0,0,1,.7-.19,4.162,4.162,0,0,0,.963.435,3.824,3.824,0,0,0,1.146.166,2.662,2.662,0,0,0,1.835-.585,2.45,2.45,0,0,0,.656-1.914V107H149.8a2.327,2.327,0,0,1-1.054,1.036,3.6,3.6,0,0,1-1.669.371,3.273,3.273,0,0,1-2.583-.981,4.21,4.21,0,0,1-.871-2.879v-.569a3.917,3.917,0,0,1,.971-2.895,3.53,3.53,0,0,1,2.6-.965m.1,1a2.392,2.392,0,0,0-1.827.7,3.154,3.154,0,0,0-.664,2.222v.443q0,2.927,2.458,2.926a2.782,2.782,0,0,0,.956-.166,2.608,2.608,0,0,0,.821-.483,2.341,2.341,0,0,0,.582-.767,2.309,2.309,0,0,0,.215-1v-1.946a1.607,1.607,0,0,0-.174-.728,1.886,1.886,0,0,0-.507-.617,2.571,2.571,0,0,0-.8-.427,3.3,3.3,0,0,0-1.063-.158" transform="translate(-35.446 -24.71)" fill="#1a1311"/><path d="M176.787,96.28a.879.879,0,0,1,.631.237.775.775,0,0,1,.249.585.757.757,0,0,1-.249.569.958.958,0,0,1-1.262,0,.757.757,0,0,1-.249-.569.775.775,0,0,1,.249-.585.879.879,0,0,1,.631-.237m0,3.005a.787.787,0,0,1,.416.111.393.393,0,0,1,.182.364v7.387a.393.393,0,0,1-.182.364.835.835,0,0,1-.831,0,.392.392,0,0,1-.183-.364V99.76a.392.392,0,0,1,.183-.364.783.783,0,0,1,.415-.111" transform="translate(-43.412 -23.761)" fill="#1a1311"/><path d="M204.737,100.123a3.173,3.173,0,0,1,2.317.791,2.88,2.88,0,0,1,.806,2.151v5.03a.388.388,0,0,1-.191.364.831.831,0,0,1-.424.111.741.741,0,0,1-.407-.111.4.4,0,0,1-.174-.364v-4.761a2.258,2.258,0,0,0-.54-1.669,2.332,2.332,0,0,0-1.686-.53,2.743,2.743,0,0,0-1.046.19,2.5,2.5,0,0,0-.789.5,2.209,2.209,0,0,0-.5.7,1.9,1.9,0,0,0-.174.783v4.793a.393.393,0,0,1-.184.364.832.832,0,0,1-.829,0,.392.392,0,0,1-.183-.364v-7.4a.382.382,0,0,1,.174-.348.741.741,0,0,1,.407-.111.715.715,0,0,1,.391.111.383.383,0,0,1,.174.348v.807h.033a1.836,1.836,0,0,1,.365-.483,2.782,2.782,0,0,1,.606-.443,3.668,3.668,0,0,1,.831-.324,3.944,3.944,0,0,1,1.021-.127" transform="translate(-49.54 -24.71)" fill="#1a1311"/><path d="M235.825,100.123a3.635,3.635,0,0,1,2.4.728,2.459,2.459,0,0,1,.872,1.993v5.283a.363.363,0,0,1-.174.34.792.792,0,0,1-.782,0,.363.363,0,0,1-.174-.34v-.775h-.016a2.04,2.04,0,0,1-.947.886,3.862,3.862,0,0,1-.8.285,4.242,4.242,0,0,1-1.013.111,3.377,3.377,0,0,1-2.175-.641,2.172,2.172,0,0,1-.8-1.795v-.158a2.494,2.494,0,0,1,.175-.941,1.832,1.832,0,0,1,.565-.752,2.887,2.887,0,0,1,.987-.5,5.036,5.036,0,0,1,1.445-.182H237.9v-.585a1.952,1.952,0,0,0-.507-1.479,2.261,2.261,0,0,0-1.6-.483,4.037,4.037,0,0,0-1.212.182,5.216,5.216,0,0,0-1.113.5.44.44,0,0,1-.389.063.577.577,0,0,1-.307-.237.509.509,0,0,1-.091-.364.439.439,0,0,1,.224-.316,5.132,5.132,0,0,1,1.3-.585,5.46,5.46,0,0,1,1.628-.237m-.4,4.46a2.313,2.313,0,0,0-1.57.42,1.385,1.385,0,0,0-.456,1.067v.095a1.333,1.333,0,0,0,.481,1.091,2.149,2.149,0,0,0,1.395.4,3.658,3.658,0,0,0,1.611-.316,2.076,2.076,0,0,0,.748-.624,1.56,1.56,0,0,0,.282-.941v-1.186Z" transform="translate(-57.311 -24.71)" fill="#1a1311"/><path d="M59.307,0H57.078A18.566,18.566,0,0,0,52.4.8a16.958,16.958,0,0,0-4.992,2.22c-3.618,2.44-6.665,6.53-9.054,12.158L23.764,50.057,11.51,19.333a2.941,2.941,0,0,1-.272-1.06,2.3,2.3,0,0,1,.1-.717,1.964,1.964,0,0,1,2.056-1.437h.542a.377.377,0,0,0,.377-.377v-.6a.377.377,0,0,0-.377-.377H.377A.376.376,0,0,0,0,15.139v.6a.376.376,0,0,0,.377.377H.858a5.193,5.193,0,0,1,2.782.875,5.87,5.87,0,0,1,2.176,2.7L22.748,58.314a.377.377,0,0,0,.345.225h.542a.376.376,0,0,0,.377-.377c0-.567.38-2.078,2.2-6.05L42.958,15.478c.716-1.552,1.351-2.842,1.887-3.835a37.815,37.815,0,0,1,2.3-3.608,16.658,16.658,0,0,1,3.032-3.359,16.193,16.193,0,0,1,9.148-3.32.377.377,0,0,0,.361-.377v-.6A.377.377,0,0,0,59.307,0" fill="#1a1311"/><path d="M161.1,24.88H150.085a.342.342,0,0,0-.343.343v.548a.342.342,0,0,0,.343.342h.493a1.714,1.714,0,0,1,1.455.608,1.989,1.989,0,0,1,.5,1.159,3.733,3.733,0,0,1-.194,1.156l-11.619,27.93-11.141-27.93a3.014,3.014,0,0,1-.247-1.155,1.987,1.987,0,0,1,.5-1.159,1.716,1.716,0,0,1,1.456-.608h.493a.342.342,0,0,0,.342-.342v-.548a.342.342,0,0,0-.342-.343H119.462a.343.343,0,0,0-.343.343v.548a.342.342,0,0,0,.343.342h.438a4.719,4.719,0,0,1,2.529.8,5.334,5.334,0,0,1,1.979,2.45L139.8,64.475a.342.342,0,0,0,.313.2h.493a.342.342,0,0,0,.343-.343c0-.516.346-1.889,2-5.5l13.2-29.526a5.433,5.433,0,0,1,1.955-2.4,4.584,4.584,0,0,1,2.5-.795h.493a.342.342,0,0,0,.343-.342v-.548a.342.342,0,0,0-.343-.343" transform="translate(-29.398 -6.14)" fill="#1a1311"/><path d="M232.478,24.88H222.344a.342.342,0,0,0-.343.343v.548a.342.342,0,0,0,.343.342h.877a2.564,2.564,0,0,1,1.8.652,2.243,2.243,0,0,1,.763,1.635V50.039a12.339,12.339,0,0,1-3.246,8.884,11.252,11.252,0,0,1-8.464,3.374,10.526,10.526,0,0,1-8.315-3.554,13.858,13.858,0,0,1-3.12-9.416V28.416a2.257,2.257,0,0,1,.763-1.651,2.57,2.57,0,0,1,1.8-.652h.877a.342.342,0,0,0,.342-.342v-.548a.342.342,0,0,0-.342-.343H194.953a.343.343,0,0,0-.343.343v.548a.342.342,0,0,0,.343.342h.877a2.939,2.939,0,0,1,1.317.288,2.218,2.218,0,0,1,1.244,2.109V50.094a13.859,13.859,0,0,0,4.3,10.577,15.758,15.758,0,0,0,11.162,4.009c4.563,0,8.274-1.36,11.031-4.042a14.186,14.186,0,0,0,4.158-10.6V28.362a2.16,2.16,0,0,1,.786-1.595,2.594,2.594,0,0,1,1.775-.655h.877a.342.342,0,0,0,.343-.342v-.548a.343.343,0,0,0-.343-.343" transform="translate(-48.028 -6.14)" fill="#1a1311"/><path d="M283.765,46.906l-10.792-9.97a6.046,6.046,0,0,1-2.081-4.57,5.968,5.968,0,0,1,1.787-4.412,6.109,6.109,0,0,1,4.444-1.764,6.459,6.459,0,0,1,4.351,1.451,4.784,4.784,0,0,1,1.662,3.85.342.342,0,0,0,.342.342h.493a.342.342,0,0,0,.343-.342V24.752a.342.342,0,0,0-.343-.343h-2.1a23.776,23.776,0,0,0-4.747-.548,9.565,9.565,0,0,0-7.289,2.874,9.741,9.741,0,0,0-2.695,6.89,9.07,9.07,0,0,0,3.068,6.88l10.519,9.752a6.352,6.352,0,0,1,2.026,4.871,6.571,6.571,0,0,1-2.11,4.982,7.654,7.654,0,0,1-5.435,1.989,6.617,6.617,0,0,1-5.116-2.107,7.631,7.631,0,0,1-1.938-5.33c0-.4.018-.791.053-1.173a.345.345,0,0,0-.089-.262.339.339,0,0,0-.252-.111h-.493a.343.343,0,0,0-.325.233,15.151,15.151,0,0,0-.839,4.765,17.1,17.1,0,0,0,.172,3.031.351.351,0,0,0,.088.166,9.339,9.339,0,0,0,4.348,2.366,19.942,19.942,0,0,0,5.213.752,10.389,10.389,0,0,0,7.693-2.922,10.185,10.185,0,0,0,2.893-7.445,9.283,9.283,0,0,0-2.849-7.154" transform="translate(-65.698 -5.889)" fill="#1a1311"/><path d="M93.471,16.424a4.11,4.11,0,1,1-4.11-4.11,4.11,4.11,0,0,1,4.11,4.11" transform="translate(-21.039 -3.039)" fill="#1a1311"/><path d="M95.02,64.68c-.01,0-.017-.011-.027-.011H93.534c-.731-.079-2.158-.682-2.158-3V29.447h-.6A39.691,39.691,0,0,1,83.556,30.6v.974h1.952a1.9,1.9,0,0,1,1.924,2.013V61.7s-.058,2.724-2.342,2.97H83.936c-.023,0-.038.017-.059.024a.181.181,0,0,0-.132.166v.758a.19.19,0,0,0,.191.19H94.993a.189.189,0,0,0,.19-.19v-.758a.185.185,0,0,0-.163-.179" transform="translate(-20.621 -7.267)" fill="#1a1311"/></svg>