<svg xmlns="http://www.w3.org/2000/svg" xmlns:xlink="http://www.w3.org/1999/xlink" width="747.301" height="197.72" viewBox="0 0 747.301 197.72"><defs><clipPath id="a"><rect width="747.301" height="197.72" fill="#fff"/></clipPath></defs><g clip-path="url(#a)"><path d="M200.621,0H193.08c-4.031,0-9.356.906-15.833,2.692a57.407,57.407,0,0,0-16.885,7.5c-12.24,8.243-22.546,22.054-30.626,41.065L80.389,169.069,38.934,65.3a9.92,9.92,0,0,1-.92-3.579,7.74,7.74,0,0,1,.334-2.422c1.182-3.312,3.394-4.854,6.953-4.854h1.834A1.273,1.273,0,0,0,48.41,53.17V51.134a1.273,1.273,0,0,0-1.274-1.272H1.274A1.272,1.272,0,0,0,0,51.134V53.17a1.272,1.272,0,0,0,1.274,1.272H2.9A17.586,17.586,0,0,1,12.311,57.4a19.833,19.833,0,0,1,7.361,9.1L76.952,196.959a1.275,1.275,0,0,0,1.167.761h1.834a1.272,1.272,0,0,0,1.274-1.272c0-1.916,1.287-7.016,7.427-20.433L145.317,52.279c2.421-5.241,4.571-9.6,6.382-12.954a127.693,127.693,0,0,1,7.771-12.186,56.3,56.3,0,0,1,10.258-11.346A54.827,54.827,0,0,1,200.675,4.579a1.273,1.273,0,0,0,1.22-1.272V1.272A1.273,1.273,0,0,0,200.621,0" transform="translate(0 -0.001)" fill="#fff"/><path d="M261.116,24.88H223.868a1.158,1.158,0,0,0-1.159,1.158v1.849a1.157,1.157,0,0,0,1.159,1.155h1.669a5.806,5.806,0,0,1,4.923,2.05,6.724,6.724,0,0,1,1.7,3.918,12.592,12.592,0,0,1-.655,3.905l-39.3,94.334L154.517,38.913a10.166,10.166,0,0,1-.836-3.9,6.706,6.706,0,0,1,1.7-3.915,5.809,5.809,0,0,1,4.925-2.053h1.669a1.155,1.155,0,0,0,1.157-1.155V26.038a1.156,1.156,0,0,0-1.157-1.158h-41.7a1.158,1.158,0,0,0-1.159,1.158v1.849a1.157,1.157,0,0,0,1.159,1.155h1.48a15.98,15.98,0,0,1,8.553,2.689,18.02,18.02,0,0,1,6.693,8.276l52.076,118.607a1.158,1.158,0,0,0,1.06.692h1.666a1.156,1.156,0,0,0,1.159-1.158c0-1.743,1.172-6.38,6.754-18.587l44.662-99.727A18.341,18.341,0,0,1,251,31.726a15.522,15.522,0,0,1,8.451-2.684h1.666a1.157,1.157,0,0,0,1.159-1.155V26.038a1.158,1.158,0,0,0-1.159-1.158" transform="translate(184.384 38.414)" fill="#fff"/><path d="M322.708,24.88H288.426a1.158,1.158,0,0,0-1.159,1.158v1.849a1.157,1.157,0,0,0,1.159,1.155h2.966a8.681,8.681,0,0,1,6.079,2.2,7.58,7.58,0,0,1,2.581,5.526v73.087c0,12.338-3.692,22.433-10.979,30.007s-16.905,11.395-28.631,11.395c-11.7,0-21.163-4.037-28.126-12-7-8.006-10.556-18.706-10.556-31.8l0-70.629a7.626,7.626,0,0,1,2.581-5.579,8.7,8.7,0,0,1,6.084-2.2h2.966a1.155,1.155,0,0,0,1.157-1.155V26.038a1.156,1.156,0,0,0-1.157-1.158h-37.62a1.158,1.158,0,0,0-1.159,1.158v1.849a1.157,1.157,0,0,0,1.159,1.155h2.966a9.953,9.953,0,0,1,4.454.972,7.491,7.491,0,0,1,4.209,7.123v72.9c0,14.7,4.895,26.717,14.543,35.723,9.628,8.985,22.332,13.542,37.76,13.542s27.989-4.592,37.316-13.651,14.064-21.11,14.064-35.8l0-73.216a7.289,7.289,0,0,1,2.66-5.383,8.782,8.782,0,0,1,6-2.213h2.966a1.157,1.157,0,0,0,1.159-1.155V26.038a1.158,1.158,0,0,0-1.159-1.158" transform="translate(301.236 38.414)" fill="#fff"/><path d="M325.6,101.7,289.093,68.021a20.406,20.406,0,0,1-7.04-15.434,20.132,20.132,0,0,1,6.046-14.9,20.672,20.672,0,0,1,15.033-5.958c5.982,0,10.936,1.649,14.717,4.9s5.623,7.51,5.623,13a1.155,1.155,0,0,0,1.157,1.155h1.666a1.156,1.156,0,0,0,1.159-1.155V26.869a1.156,1.156,0,0,0-1.159-1.158h-7.106a80.543,80.543,0,0,0-16.057-1.849c-10.294,0-18.59,3.264-24.656,9.708a32.872,32.872,0,0,0-9.116,23.273,30.615,30.615,0,0,0,10.378,23.237l35.581,32.937c4.545,4.193,6.854,9.726,6.854,16.45a22.178,22.178,0,0,1-7.139,16.829c-4.754,4.457-10.943,6.719-18.386,6.719-7.167,0-12.989-2.394-17.305-7.118-4.349-4.75-6.556-10.807-6.556-18,0-1.338.061-2.671.181-3.966a1.163,1.163,0,0,0-.3-.883,1.147,1.147,0,0,0-.854-.377h-1.669a1.159,1.159,0,0,0-1.1.789,51.107,51.107,0,0,0-2.838,16.093,57.615,57.615,0,0,0,.581,10.235,1.2,1.2,0,0,0,.3.562c3.468,3.587,8.416,6.276,14.706,7.991a67.554,67.554,0,0,0,17.634,2.539c10.772,0,19.527-3.322,26.024-9.873s9.786-15.007,9.786-25.145c0-10.158-3.243-18.286-9.639-24.163" transform="translate(412.063 36.842)" fill="#fff"/><path d="M112.767,26.158a13.723,13.723,0,1,1-13.723-13.7,13.711,13.711,0,0,1,13.723,13.7" transform="translate(132.068 19.231)" fill="#fff"/><path d="M122.335,148.448c-.033-.005-.056-.038-.092-.038h-4.935c-2.471-.267-7.3-2.3-7.3-10.145V29.447H107.97a134.449,134.449,0,0,1-24.414,3.887v3.289h6.6s6.507-.066,6.507,6.8v94.955s-.2,9.2-7.921,10.031h-3.9c-.079,0-.13.059-.2.081a.611.611,0,0,0-.446.562v2.559a.643.643,0,0,0,.645.641h37.4a.641.641,0,0,0,.642-.641v-2.559a.624.624,0,0,0-.55-.605" transform="translate(129.336 45.466)" fill="#fff"/></g></svg>