<svg xmlns="http://www.w3.org/2000/svg" xmlns:xlink="http://www.w3.org/1999/xlink" width="164.98" height="43.72" viewBox="0 0 164.98 43.72"><defs><clipPath id="a"><rect width="164.98" height="43.72"/></clipPath></defs><g clip-path="url(#a)"><path d="M44.291,0H42.626a13.864,13.864,0,0,0-3.5.6A12.664,12.664,0,0,0,35.4,2.254c-2.7,1.823-4.978,4.877-6.761,9.08L17.747,37.385,8.6,14.439a2.2,2.2,0,0,1-.2-.791,1.714,1.714,0,0,1,.074-.536A1.467,1.467,0,0,1,10,12.038h.4a.281.281,0,0,0,.281-.281v-.45a.281.281,0,0,0-.281-.281H.281A.281.281,0,0,0,0,11.307v.45a.281.281,0,0,0,.281.281H.641a3.878,3.878,0,0,1,2.077.654,4.384,4.384,0,0,1,1.625,2.013L16.988,43.552a.281.281,0,0,0,.258.168h.4a.281.281,0,0,0,.281-.281c0-.424.284-1.551,1.64-4.518L32.081,11.56C32.616,10.4,33.09,9.438,33.49,8.7A28.242,28.242,0,0,1,35.206,6,12.441,12.441,0,0,1,37.47,3.492,12.092,12.092,0,0,1,44.3,1.013a.281.281,0,0,0,.269-.281V.281A.281.281,0,0,0,44.291,0" transform="translate(0 0)"/><path d="M150.467,24.88h-8.223a.256.256,0,0,0-.256.256v.409a.256.256,0,0,0,.256.255h.368a1.281,1.281,0,0,1,1.087.453,1.488,1.488,0,0,1,.376.866,2.788,2.788,0,0,1-.145.863l-8.677,20.859-8.32-20.86a2.251,2.251,0,0,1-.185-.863,1.484,1.484,0,0,1,.375-.866,1.281,1.281,0,0,1,1.087-.454h.368a.255.255,0,0,0,.255-.255v-.409a.255.255,0,0,0-.255-.256h-9.205a.256.256,0,0,0-.256.256v.409a.256.256,0,0,0,.256.255h.327a3.524,3.524,0,0,1,1.888.595,3.983,3.983,0,0,1,1.478,1.83l11.5,26.226a.256.256,0,0,0,.234.153h.368a.255.255,0,0,0,.256-.256c0-.385.259-1.411,1.491-4.11l9.86-22.052a4.054,4.054,0,0,1,1.46-1.793A3.423,3.423,0,0,1,150.1,25.8h.368a.256.256,0,0,0,.256-.255v-.409a.256.256,0,0,0-.256-.256" transform="translate(-52.115 -10.884)"/><path d="M222.89,24.88h-7.568a.256.256,0,0,0-.256.256v.409a.256.256,0,0,0,.256.255h.655a1.915,1.915,0,0,1,1.342.487,1.677,1.677,0,0,1,.57,1.222V43.67a9.216,9.216,0,0,1-2.424,6.635,8.4,8.4,0,0,1-6.321,2.52,7.86,7.86,0,0,1-6.209-2.654,10.351,10.351,0,0,1-2.33-7.032V27.521a1.687,1.687,0,0,1,.57-1.234,1.918,1.918,0,0,1,1.343-.487h.655a.255.255,0,0,0,.255-.255v-.409a.255.255,0,0,0-.255-.256h-8.305a.256.256,0,0,0-.256.256v.409a.256.256,0,0,0,.256.255h.655a2.195,2.195,0,0,1,.983.215,1.657,1.657,0,0,1,.929,1.575V43.711a10.352,10.352,0,0,0,3.211,7.9A11.768,11.768,0,0,0,208.98,54.6a11.359,11.359,0,0,0,8.238-3.019,10.6,10.6,0,0,0,3.1-7.916V27.48a1.613,1.613,0,0,1,.587-1.19,1.937,1.937,0,0,1,1.325-.489h.655a.256.256,0,0,0,.256-.255v-.409a.256.256,0,0,0-.256-.256" transform="translate(-85.143 -10.884)"/><path d="M279.32,41.073l-8.059-7.446a4.515,4.515,0,0,1-1.554-3.413,4.455,4.455,0,0,1,1.335-3.3A4.56,4.56,0,0,1,274.36,25.6a4.824,4.824,0,0,1,3.249,1.083,3.573,3.573,0,0,1,1.241,2.875.255.255,0,0,0,.255.255h.368a.255.255,0,0,0,.256-.255V24.527a.255.255,0,0,0-.256-.256H277.9a17.754,17.754,0,0,0-3.545-.409,7.143,7.143,0,0,0-5.443,2.147,7.275,7.275,0,0,0-2.013,5.146,6.774,6.774,0,0,0,2.291,5.138l7.855,7.283a4.743,4.743,0,0,1,1.513,3.637,4.908,4.908,0,0,1-1.576,3.721,5.718,5.718,0,0,1-4.059,1.486,4.942,4.942,0,0,1-3.82-1.574,5.7,5.7,0,0,1-1.447-3.98c0-.3.013-.591.04-.877a.257.257,0,0,0-.066-.2.253.253,0,0,0-.188-.083h-.368a.256.256,0,0,0-.242.174,11.317,11.317,0,0,0-.627,3.559,12.757,12.757,0,0,0,.128,2.263.264.264,0,0,0,.066.124,6.975,6.975,0,0,0,3.247,1.767,14.892,14.892,0,0,0,3.893.561,7.757,7.757,0,0,0,5.745-2.183,7.6,7.6,0,0,0,2.161-5.56,6.932,6.932,0,0,0-2.128-5.343" transform="translate(-116.468 -10.439)"/><path d="M91.38,15.486a3.03,3.03,0,1,1-3.03-3.03,3.029,3.029,0,0,1,3.03,3.03" transform="translate(-37.329 -5.449)"/><path d="M92.117,55.761c-.007,0-.012-.008-.02-.008h-1.09c-.546-.059-1.612-.509-1.612-2.243V29.447h-.45a29.639,29.639,0,0,1-5.39.86v.727h1.458a1.417,1.417,0,0,1,1.437,1.5v21s-.043,2.034-1.749,2.218H83.84c-.017,0-.029.013-.044.018a.135.135,0,0,0-.1.124v.566a.142.142,0,0,0,.142.142H92.1a.142.142,0,0,0,.142-.142v-.566a.138.138,0,0,0-.121-.134" transform="translate(-36.556 -12.882)"/></g></svg>