<svg xmlns="http://www.w3.org/2000/svg" xmlns:xlink="http://www.w3.org/1999/xlink" width="415" height="109.296" viewBox="0 0 415 109.296"><defs><clipPath id="a"><rect width="415" height="109.296" fill="#bbb08d"/></clipPath></defs><g clip-path="url(#a)"><path d="M111.411,0h-4.188a35.073,35.073,0,0,0-8.792,1.488,31.952,31.952,0,0,0-9.377,4.146c-6.8,4.556-12.521,12.191-17.007,22.7l-27.4,65.125L21.622,36.095a5.463,5.463,0,0,1-.511-1.979,4.26,4.26,0,0,1,.185-1.339,3.689,3.689,0,0,1,3.861-2.683h1.019a.706.706,0,0,0,.707-.7V28.266a.706.706,0,0,0-.707-.7H.707a.7.7,0,0,0-.707.7v1.125a.7.7,0,0,0,.707.7h.9a9.8,9.8,0,0,1,5.225,1.634,10.974,10.974,0,0,1,4.088,5.033l31.809,72.114a.708.708,0,0,0,.648.42H44.4a.7.7,0,0,0,.707-.7c0-1.059.715-3.879,4.125-11.3L80.7,28.9c1.344-2.9,2.538-5.306,3.544-7.161A70.543,70.543,0,0,1,88.559,15a31.171,31.171,0,0,1,5.7-6.272,29.16,29.16,0,0,1,7.458-4.168,29.455,29.455,0,0,1,9.728-2.031.705.705,0,0,0,.678-.7V.7a.706.706,0,0,0-.707-.7" transform="translate(0 0)" fill="#bbb08d"/><path d="M197.974,24.88H177.29a.641.641,0,0,0-.644.64v1.022a.641.641,0,0,0,.644.638h.927a3.231,3.231,0,0,1,2.734,1.133,3.708,3.708,0,0,1,.945,2.166,6.932,6.932,0,0,1-.364,2.159L159.7,84.784,138.777,32.637a5.6,5.6,0,0,1-.464-2.157,3.7,3.7,0,0,1,.944-2.164,3.233,3.233,0,0,1,2.735-1.135h.927a.64.64,0,0,0,.642-.638V25.52a.64.64,0,0,0-.642-.64H119.763a.641.641,0,0,0-.644.64v1.022a.641.641,0,0,0,.644.638h.822a8.9,8.9,0,0,1,4.75,1.486,9.971,9.971,0,0,1,3.717,4.575l28.92,65.563a.643.643,0,0,0,.589.383h.925a.641.641,0,0,0,.644-.64c0-.963.651-3.527,3.751-10.274l24.8-55.127a10.149,10.149,0,0,1,3.673-4.482,8.648,8.648,0,0,1,4.693-1.484h.925a.641.641,0,0,0,.644-.638V25.52a.641.641,0,0,0-.644-.64" transform="translate(49.426 10.108)" fill="#bbb08d"/><path d="M265.747,24.88H246.709a.641.641,0,0,0-.644.64v1.022a.641.641,0,0,0,.644.638h1.647a4.834,4.834,0,0,1,3.376,1.216,4.182,4.182,0,0,1,1.433,3.054v40.4c0,6.82-2.05,12.4-6.1,16.587s-9.388,6.3-15.9,6.3S219.416,92.506,215.55,88.1c-3.89-4.426-5.862-10.34-5.862-17.58V31.481a4.208,4.208,0,0,1,1.433-3.084,4.843,4.843,0,0,1,3.379-1.216h1.647a.64.64,0,0,0,.642-.638V25.52a.64.64,0,0,0-.642-.64H195.254a.641.641,0,0,0-.644.64v1.022a.641.641,0,0,0,.644.638H196.9a5.549,5.549,0,0,1,2.473.537,4.138,4.138,0,0,1,2.337,3.938v40.3c0,8.125,2.718,14.769,8.076,19.747s12.4,7.486,20.969,7.486,15.543-2.538,20.723-7.546,7.81-11.669,7.81-19.789V31.38a4.023,4.023,0,0,1,1.477-2.976,4.89,4.89,0,0,1,3.334-1.223h1.647a.641.641,0,0,0,.644-.638V25.52a.641.641,0,0,0-.644-.64" transform="translate(80.749 10.108)" fill="#bbb08d"/><path d="M299.19,66.887,278.917,48.272a11.258,11.258,0,0,1-3.909-8.532,11.1,11.1,0,0,1,3.358-8.238,11.508,11.508,0,0,1,8.348-3.293,12.182,12.182,0,0,1,8.173,2.708,8.908,8.908,0,0,1,3.123,7.187.64.64,0,0,0,.642.638h.925a.64.64,0,0,0,.644-.638V25.524a.641.641,0,0,0-.644-.64H295.63a44.926,44.926,0,0,0-8.917-1.022c-5.716,0-10.323,1.8-13.692,5.366a18.125,18.125,0,0,0-5.063,12.865,16.889,16.889,0,0,0,5.763,12.845l19.759,18.207a11.823,11.823,0,0,1,3.806,9.093,12.232,12.232,0,0,1-3.965,9.3,14.435,14.435,0,0,1-10.21,3.714,12.469,12.469,0,0,1-9.61-3.935,14.2,14.2,0,0,1-3.641-9.951c0-.74.034-1.477.1-2.192a.643.643,0,0,0-.641-.7h-.927a.644.644,0,0,0-.61.436,28.134,28.134,0,0,0-1.576,8.9,31.706,31.706,0,0,0,.323,5.657.66.66,0,0,0,.166.311,17.576,17.576,0,0,0,8.167,4.417,37.678,37.678,0,0,0,9.793,1.4c5.982,0,10.844-1.837,14.452-5.458a18.947,18.947,0,0,0,5.435-13.9c0-5.615-1.8-10.108-5.353-13.357" transform="translate(110.457 9.694)" fill="#bbb08d"/><path d="M100.563,20.03a7.621,7.621,0,1,1-7.621-7.574,7.6,7.6,0,0,1,7.621,7.574" transform="translate(35.402 5.06)" fill="#bbb08d"/><path d="M105.091,95.228c-.018,0-.031-.021-.051-.021H102.3c-1.372-.148-4.054-1.273-4.054-5.608V29.447H97.114A74.977,74.977,0,0,1,83.556,31.6v1.818h3.667a3.556,3.556,0,0,1,3.614,3.759V89.662s-.109,5.085-4.4,5.545H84.271c-.044,0-.072.032-.11.045a.338.338,0,0,0-.248.311v1.415a.356.356,0,0,0,.358.354h20.77a.355.355,0,0,0,.357-.354V95.563a.345.345,0,0,0-.306-.335" transform="translate(34.67 11.963)" fill="#bbb08d"/></g></svg>